<svg xmlns="http://www.w3.org/2000/svg" xmlns:svg="http://www.w3.org/2000/svg" id="svg1955" width="1797.294" height="916.2" version="1.1" viewBox="0 0 475.534 242.411"><defs id="defs1949"><marker style="overflow:visible" id="marker2722" orient="auto" refX="0" refY="0"><path transform="scale(0.8) translate(12.5,0)" style="fill-rule:evenodd;fill:context-stroke;stroke:context-stroke;stroke-width:1pt" id="path2461" d="M 0.0,0.0 L 5.0,-5.0 L -12.5,0.0 L 5.0,5.0 L 0.0,0.0 z"/></marker><marker id="marker1389" orient="auto" refX="0" refY="0" style="overflow:visible"><path id="path1387" d="M 0,0 5,-5 -12.5,0 5,5 Z" style="fill:#000;fill-opacity:1;fill-rule:evenodd;stroke:#000;stroke-width:1.00000003pt;stroke-opacity:1" transform="matrix(-0.8,0,0,-0.8,-10,0)"/></marker><marker style="overflow:visible" id="marker1236" orient="auto" refX="0" refY="0"><path transform="matrix(-0.8,0,0,-0.8,-10,0)" style="fill:#000;fill-opacity:1;fill-rule:evenodd;stroke:#000;stroke-width:1.00000003pt;stroke-opacity:1" id="path1234" d="M 0,0 5,-5 -12.5,0 5,5 Z"/></marker><marker id="marker11206" orient="auto" refX="0" refY="0" style="overflow:visible"><path id="path11204" d="M 0,0 5,-5 -12.5,0 5,5 Z" style="fill:#000;fill-opacity:1;fill-rule:evenodd;stroke:#000;stroke-width:1.00000003pt;stroke-opacity:1" transform="matrix(-0.8,0,0,-0.8,-10,0)"/></marker><marker style="overflow:visible" id="marker10248" orient="auto" refX="0" refY="0"><path transform="matrix(-0.8,0,0,-0.8,-10,0)" style="fill:#000;fill-opacity:1;fill-rule:evenodd;stroke:#000;stroke-width:1.00000003pt;stroke-opacity:1" id="path10246" d="M 0,0 5,-5 -12.5,0 5,5 Z"/></marker><marker id="marker9974" orient="auto" refX="0" refY="0" style="overflow:visible"><path id="path9972" d="M 0,0 5,-5 -12.5,0 5,5 Z" style="fill:#000;fill-opacity:1;fill-rule:evenodd;stroke:#000;stroke-width:1.00000003pt;stroke-opacity:1" transform="matrix(-0.8,0,0,-0.8,-10,0)"/></marker><marker style="overflow:visible" id="marker9656" orient="auto" refX="0" refY="0"><path transform="matrix(-0.8,0,0,-0.8,-10,0)" style="fill:#000;fill-opacity:1;fill-rule:evenodd;stroke:#000;stroke-width:1.00000003pt;stroke-opacity:1" id="path9654" d="M 0,0 5,-5 -12.5,0 5,5 Z"/></marker><marker id="marker9490" orient="auto" refX="0" refY="0" style="overflow:visible"><path id="path9488" d="M 0,0 5,-5 -12.5,0 5,5 Z" style="fill:#000;fill-opacity:1;fill-rule:evenodd;stroke:#000;stroke-width:1.00000003pt;stroke-opacity:1" transform="matrix(-0.8,0,0,-0.8,-10,0)"/></marker><marker style="overflow:visible" id="marker7012" orient="auto" refX="0" refY="0"><path transform="matrix(-0.8,0,0,-0.8,-10,0)" style="fill:#000;fill-opacity:1;fill-rule:evenodd;stroke:#000;stroke-width:1.00000003pt;stroke-opacity:1" id="path7010" d="M 0,0 5,-5 -12.5,0 5,5 Z"/></marker><marker id="marker6880" orient="auto" refX="0" refY="0" style="overflow:visible"><path id="path6878" d="M 0,0 5,-5 -12.5,0 5,5 Z" style="fill:#000;fill-opacity:1;fill-rule:evenodd;stroke:#000;stroke-width:1.00000003pt;stroke-opacity:1" transform="matrix(-0.8,0,0,-0.8,-10,0)"/></marker><marker style="overflow:visible" id="marker6354" orient="auto" refX="0" refY="0"><path transform="matrix(-0.8,0,0,-0.8,-10,0)" style="fill:#000;fill-opacity:1;fill-rule:evenodd;stroke:#000;stroke-width:1.00000003pt;stroke-opacity:1" id="path6352" d="M 0,0 5,-5 -12.5,0 5,5 Z"/></marker><marker id="marker6240" orient="auto" refX="0" refY="0" style="overflow:visible"><path id="path6238" d="M 0,0 5,-5 -12.5,0 5,5 Z" style="fill:#000;fill-opacity:1;fill-rule:evenodd;stroke:#000;stroke-width:1.00000003pt;stroke-opacity:1" transform="matrix(-0.8,0,0,-0.8,-10,0)"/></marker><marker style="overflow:visible" id="marker5508" orient="auto" refX="0" refY="0"><path transform="matrix(-0.8,0,0,-0.8,-10,0)" style="fill:#000;fill-opacity:1;fill-rule:evenodd;stroke:#000;stroke-width:1.00000003pt;stroke-opacity:1" id="path5506" d="M 0,0 5,-5 -12.5,0 5,5 Z"/></marker><marker style="overflow:visible" id="marker5137" orient="auto" refX="0" refY="0"><path transform="matrix(-0.8,0,0,-0.8,-10,0)" style="fill:#000;fill-opacity:1;fill-rule:evenodd;stroke:#000;stroke-width:1.00000003pt;stroke-opacity:1" id="path5135" d="M 0,0 5,-5 -12.5,0 5,5 Z"/></marker><marker id="marker4951" orient="auto" refX="0" refY="0" style="overflow:visible"><path id="path4949" d="M 0,0 5,-5 -12.5,0 5,5 Z" style="fill:#000;fill-opacity:1;fill-rule:evenodd;stroke:#000;stroke-width:1.00000003pt;stroke-opacity:1" transform="matrix(-0.8,0,0,-0.8,-10,0)"/></marker><marker id="Scissors" orient="auto" refX="0" refY="0" style="overflow:visible"><path id="schere" d="M 9.0898857,-3.6061018 C 8.1198849,-4.7769976 6.3697607,-4.7358294 5.0623558,-4.2327734 l -8.2124046,3.0779029 c -2.3882933,-1.3067135 -4.7482873,-0.9325372 -4.7482873,-1.5687873 0,-0.4973164 0.4566662,-0.3883222 0.3883068,-1.6831941 -0.065635,-1.2432767 -1.3635771,-2.1630796 -2.5903987,-2.0816435 -1.227271,-0.00735 -2.499439,0.9331613 -2.510341,2.2300611 -0.09143,1.3063864 1.007209,2.5196896 2.306764,2.6052316 1.5223406,0.2266616 4.218258,-0.6955566 5.482945,1.57086006 -0.9422847,1.73825774 -2.6140244,1.74307674 -4.1255107,1.65607034 -1.2548743,-0.072235 -2.7620933,0.2873979 -3.3606483,1.5208605 -0.578367,1.1820862 -0.0112,2.8646022 1.316749,3.226412 1.3401912,0.4918277 3.1806689,-0.129711 3.4993722,-1.6707242 0.2456585,-1.187823 -0.5953659,-1.7459574 -0.2725074,-2.1771537 0.2436135,-0.32536 1.7907806,-0.1368452 4.5471053,-1.3748244 L 5.6763468,4.2330688 C 6.8000164,4.5467672 8.1730685,4.5362646 9.1684433,3.4313614 l -9.22008423,-3.48508362 z m -18.3078016,-1.900504 c 1.294559,0.7227998 1.1888392,2.6835702 -0.1564272,3.0632889 -1.2165179,0.423661 -2.7710269,-0.7589694 -2.3831779,-2.0774648 0.227148,-1.0818519 1.653387,-1.480632 2.5396051,-0.9858241 z m 0.056264,8.0173649 c 1.3508301,0.4988648 1.1214429,2.7844356 -0.2522207,3.091609 -0.9110594,0.3163391 -2.2135494,-0.1387976 -2.3056964,-1.2121394 -0.177609,-1.305055 1.356085,-2.4841482 2.5579171,-1.8794696 z" style="fill:#000;fill-opacity:1;stroke:#000;stroke-opacity:1"/></marker><marker id="Arrow2Lend" orient="auto" refX="0" refY="0" style="overflow:visible"><path id="path4496" style="fill:#000;fill-opacity:1;fill-rule:evenodd;stroke:#000;stroke-width:.625;stroke-linejoin:round;stroke-opacity:1" d="M 8.7185878,4.0337352 -2.2072895,0.01601326 8.7185884,-4.0017078 c -1.7454984,2.3720609 -1.7354408,5.6174519 -6e-7,8.035443 z" transform="matrix(-1.1,0,0,-1.1,-1.1,0)"/></marker><marker id="TriangleOutL" orient="auto" refX="0" refY="0" style="overflow:visible"><path id="path4617" d="M 5.77,0 -2.88,5 V -5 Z" style="fill:#000;fill-opacity:1;fill-rule:evenodd;stroke:#000;stroke-width:1.00000003pt;stroke-opacity:1" transform="scale(0.8)"/></marker><marker id="Arrow1Lstart" orient="auto" refX="0" refY="0" style="overflow:visible"><path id="path4475" d="M 0,0 5,-5 -12.5,0 5,5 Z" style="fill:#000;fill-opacity:1;fill-rule:evenodd;stroke:#000;stroke-width:1.00000003pt;stroke-opacity:1" transform="matrix(0.8,0,0,0.8,10,0)"/></marker><marker id="marker4759" orient="auto" refX="0" refY="0" style="overflow:visible"><path id="path4757" d="M 0,0 5,-5 -12.5,0 5,5 Z" style="fill:#000;fill-opacity:1;fill-rule:evenodd;stroke:#000;stroke-width:1.00000003pt;stroke-opacity:1" transform="matrix(-0.8,0,0,-0.8,-10,0)"/></marker><marker id="Arrow1Lend" orient="auto" refX="0" refY="0" style="overflow:visible"><path id="path4478" d="M 0,0 5,-5 -12.5,0 5,5 Z" style="fill:#000;fill-opacity:1;fill-rule:evenodd;stroke:#000;stroke-width:1.00000003pt;stroke-opacity:1" transform="matrix(-0.8,0,0,-0.8,-10,0)"/></marker></defs><metadata id="metadata1952"/><g id="layer1" transform="translate(62.952195,5.2710703)" style="display:inline"><rect id="rect1253" width="475.205" height="242.146" x="-62.82" y="-5.139" style="fill:#fff;fill-opacity:1;stroke:#fff;stroke-width:.26499999;stroke-miterlimit:4;stroke-dasharray:none;stroke-dashoffset:0;stroke-opacity:1"/><g id="g4374" transform="matrix(1.3546821,0,0,1.3546821,-8.5799279,-35.272428)"><g id="g4368"><rect id="rect3830" width="219.226" height="14.29" x="24.19" y="77.622" style="fill:#fff9c4;fill-opacity:1;stroke:none;stroke-width:.18174031;stroke-miterlimit:4;stroke-dasharray:none;stroke-opacity:1"/><text xml:space="preserve" style="font-style:normal;font-weight:400;font-size:7.81241131px;line-height:1.25;font-family:sans-serif;letter-spacing:0;word-spacing:0;fill:#000;fill-opacity:1;stroke:none;stroke-width:.26458332" id="text3849" x="95.245" y="86.817"><tspan id="tspan3847" x="95.245" y="86.817" style="font-size:7.81241131px;stroke-width:.26458332">System Call Interface</tspan></text></g></g><g id="g4382" transform="matrix(1.3546821,0,0,1.3546821,-8.5799279,75.643331)"><g id="g4393"><rect style="fill:#b3e5fc;fill-opacity:1;stroke:none;stroke-width:.18174031;stroke-miterlimit:4;stroke-dasharray:none;stroke-opacity:1" id="rect4376" width="219.226" height="14.29" x="24.19" y="77.622"/><text id="text4380" x="107.394" y="87.606" style="font-style:normal;font-weight:400;font-size:7.81241131px;line-height:1.25;font-family:sans-serif;letter-spacing:0;word-spacing:0;fill:#000;fill-opacity:1;stroke:none;stroke-width:.26458332" xml:space="preserve"><tspan style="font-size:7.81241131px;stroke-width:.26458332" id="tspan4378" x="107.394" y="87.606">Device Drivers</tspan></text></g></g><g id="g4060" transform="translate(0,-10.414592)"><rect id="rect3869" width="96.199" height="82.399" x="23.813" y="104.232" style="fill:#c5cae9;fill-opacity:1;stroke:none;stroke-width:.2890951;stroke-miterlimit:4;stroke-dasharray:none;stroke-opacity:1"/><g id="g4009" transform="translate(-0.85016823,-1.7638951)"><rect style="fill:#9fa8da;fill-opacity:1;stroke:none;stroke-width:.12625073;stroke-miterlimit:4;stroke-dasharray:none;stroke-opacity:1" id="rect3966" width="87.633" height="17.251" x="28.946" y="128.66"/><text id="text3970" x="42.134" y="140.037" style="font-style:normal;font-weight:400;font-size:10.58333302px;line-height:1.25;font-family:sans-serif;letter-spacing:0;word-spacing:0;fill:#000;fill-opacity:1;stroke:none;stroke-width:.26458332" xml:space="preserve"><tspan style="stroke-width:.26458332" id="tspan3968" x="42.134" y="140.037">File Systems</tspan></text></g><g id="g4020" transform="translate(0,-3.5277863)"><g id="g4014" transform="translate(-0.6611805)"><rect style="fill:#9fa8da;fill-opacity:1;stroke:none;stroke-width:.12597816;stroke-miterlimit:4;stroke-dasharray:none;stroke-opacity:1" id="rect3974" width="87.255" height="17.251" x="28.946" y="149.826"/><text id="text3978" x="30.007" y="161.203" style="font-style:normal;font-weight:400;font-size:10.58333302px;line-height:1.25;font-family:sans-serif;letter-spacing:0;word-spacing:0;fill:#000;fill-opacity:1;stroke:none;stroke-width:.26458332" xml:space="preserve"><tspan style="stroke-width:.26458332" id="tspan3976" x="30.007" y="161.203">Volume Manager</tspan></text></g></g><g id="g4004" transform="translate(-0.85016823,-1.1825561e-5)"><rect id="rect3995" width="87.633" height="17.251" x="28.946" y="107.493" style="fill:#9fa8da;fill-opacity:1;stroke:none;stroke-width:.12625073;stroke-miterlimit:4;stroke-dasharray:none;stroke-opacity:1"/><text xml:space="preserve" style="font-style:normal;font-weight:400;font-size:10.58333302px;line-height:1.25;font-family:sans-serif;letter-spacing:0;word-spacing:0;fill:#000;fill-opacity:1;stroke:none;stroke-width:.26458332" id="text3999" x="64.184" y="119.897"><tspan id="tspan3997" x="64.184" y="119.897" style="stroke-width:.26458332">VFS</tspan></text></g><g id="g4028" transform="translate(-0.6611805,15.875001)"><g id="g4039" transform="translate(0,1.2252402e-6)"><rect id="rect4022" width="87.255" height="17.251" x="28.946" y="149.826" style="fill:#9fa8da;fill-opacity:1;stroke:none;stroke-width:.12597816;stroke-miterlimit:4;stroke-dasharray:none;stroke-opacity:1"/><text xml:space="preserve" style="font-style:normal;font-weight:400;font-size:10.58333302px;line-height:1.25;font-family:sans-serif;letter-spacing:0;word-spacing:0;fill:#000;fill-opacity:1;stroke:none;stroke-width:.26458332" id="text4026" x="41.262" y="162.421"><tspan id="tspan4024" x="41.262" y="162.421" style="stroke-width:.26458332">Block Device</tspan></text></g></g></g><g id="g4311" transform="translate(0,-10.583333)"><rect style="fill:#c8e6c9;fill-opacity:1;stroke:none;stroke-width:.2890951;stroke-miterlimit:4;stroke-dasharray:none;stroke-opacity:1" id="rect4062" width="96.199" height="82.399" x="124.354" y="104.232"/><g id="g4162" transform="translate(100.54167)"><rect id="rect4064" width="87.633" height="17.251" x="28.096" y="126.896" style="fill:#a5d6a7;fill-opacity:1;stroke:none;stroke-width:.12625073;stroke-miterlimit:4;stroke-dasharray:none;stroke-opacity:1"/><text xml:space="preserve" style="font-style:normal;font-weight:400;font-size:10.58333302px;line-height:1.25;font-family:sans-serif;letter-spacing:0;word-spacing:0;fill:#000;fill-opacity:1;stroke:none;stroke-width:.26458332" id="text4068" x="49.846" y="139.3"><tspan id="tspan4066" x="49.846" y="139.3" style="stroke-width:.26458332">TCP/UDP</tspan></text></g><g id="g4292"><rect style="fill:#a5d6a7;fill-opacity:1;stroke:none;stroke-width:.12597816;stroke-miterlimit:4;stroke-dasharray:none;stroke-opacity:1" id="rect4072" width="87.255" height="17.251" x="128.826" y="146.299"/><text id="text4076" x="167.516" y="158.702" style="font-style:normal;font-weight:400;font-size:10.58333302px;line-height:1.25;font-family:sans-serif;letter-spacing:0;word-spacing:0;fill:#000;fill-opacity:1;stroke:none;stroke-width:.26458332" xml:space="preserve"><tspan style="fill:#000;stroke-width:.26458332" id="tspan4074" x="167.516" y="158.702">IP</tspan></text></g><g id="g4287"><rect style="fill:#a5d6a7;fill-opacity:1;stroke:none;stroke-width:.12625073;stroke-miterlimit:4;stroke-dasharray:none;stroke-opacity:1" id="rect4082" width="87.633" height="17.251" x="128.637" y="107.493"/><text id="text4086" x="153.52" y="120.087" style="font-style:normal;font-weight:400;font-size:10.58333302px;line-height:1.25;font-family:sans-serif;letter-spacing:0;word-spacing:0;fill:#000;fill-opacity:1;stroke:none;stroke-width:.26458332" xml:space="preserve"><tspan style="stroke-width:.26458332" id="tspan4084" x="153.52" y="120.087">Sockets</tspan></text></g><g id="g4096" transform="translate(99.880489,15.875002)"><rect id="rect4090" width="87.255" height="17.251" x="28.946" y="149.826" style="fill:#a5d6a7;fill-opacity:1;stroke:none;stroke-width:.12597816;stroke-miterlimit:4;stroke-dasharray:none;stroke-opacity:1"/><text xml:space="preserve" style="font-style:normal;font-weight:400;font-size:10.58333302px;line-height:1.25;font-family:sans-serif;letter-spacing:0;word-spacing:0;fill:#000;fill-opacity:1;stroke:none;stroke-width:.26458332" id="text4094" x="50.719" y="162.421"><tspan id="tspan4092" x="50.719" y="162.421" style="stroke-width:.26458332">Ethernet</tspan></text></g></g><g id="g4140" transform="translate(201.0834,-10.583333)"><g id="g4269"><rect style="fill:#ffecb3;fill-opacity:1;stroke:none;stroke-width:.2890951;stroke-miterlimit:4;stroke-dasharray:none;stroke-opacity:1" id="rect4102" width="96.199" height="82.399" x="23.813" y="104.232"/><g id="g4170" transform="translate(0,3.4332276e-6)"><rect style="fill:#ffe082;fill-opacity:1;stroke:none;stroke-width:.12625073;stroke-miterlimit:4;stroke-dasharray:none;stroke-opacity:1" id="rect4122" width="87.633" height="17.251" x="28.096" y="107.493"/><text id="text4126" x="46.962" y="120.087" style="font-style:normal;font-weight:400;font-size:10.58333302px;line-height:1.25;font-family:sans-serif;letter-spacing:0;word-spacing:0;fill:#ffe082;fill-opacity:1;stroke:none;stroke-width:.26458332" xml:space="preserve"><tspan style="fill:#000;stroke-width:.26458332" id="tspan4124" x="46.962" y="120.087">Scheduler</tspan></text></g><g id="g4251"><g id="g4195" transform="matrix(1,0,0,2.0240382,0,-89.805564)"><g id="g4193"><rect id="rect4187" width="87.633" height="17.251" x="28.096" y="107.493" style="fill:#ffe082;fill-opacity:1;stroke:none;stroke-width:.12625073;stroke-miterlimit:4;stroke-dasharray:none;stroke-opacity:1"/></g></g><text id="text4199" x="66.936" y="151.283" style="font-style:normal;font-weight:400;font-size:9.92185593px;line-height:1.25;font-family:sans-serif;text-align:center;letter-spacing:0;word-spacing:0;text-anchor:middle;fill:#ffe082;fill-opacity:1;stroke:none;stroke-width:.2480464" transform="scale(1.0666687,0.93749822)" xml:space="preserve"><tspan style="text-align:center;text-anchor:middle;fill:#000;stroke-width:.2480464" id="tspan4197" x="66.936" y="151.283">Virtual</tspan><tspan id="tspan4203" style="text-align:center;text-anchor:middle;fill:#000;stroke-width:.2480464" x="66.936" y="163.685">Memory</tspan></text></g><g id="g4179" transform="translate(-0.6611805,15.875002)"><rect id="rect4130" width="87.255" height="17.251" x="28.946" y="149.826" style="fill:#ffe082;fill-opacity:1;stroke:none;stroke-width:.12597816;stroke-miterlimit:4;stroke-dasharray:none;stroke-opacity:1"/><text xml:space="preserve" style="font-style:normal;font-weight:400;font-size:10.58333302px;line-height:1.25;font-family:sans-serif;letter-spacing:0;word-spacing:0;fill:#000;fill-opacity:1;stroke:none;stroke-width:.26458332" id="text4134" x="42.633" y="162.421"><tspan id="tspan4132" x="42.633" y="162.421" style="stroke-width:.26458332">Clocksource</tspan></text></g></g></g><g id="g3865" transform="matrix(1.7686083,0,0,1.7686083,-18.593003,-50.832398)"><g id="g3945"><g id="g3926" transform="matrix(0.76722537,0,0,0.76722537,5.6309302,15.563196)"><rect id="rect3851" width="218.738" height="51.729" x="24.19" y="13.572" style="fill:#ffcdd2;fill-opacity:1;stroke:none;stroke-width:.34540045;stroke-miterlimit:4;stroke-dasharray:none;stroke-opacity:1"/><text id="text3855" x="111.323" y="29.229" style="font-style:normal;font-weight:400;font-size:7.79951954px;line-height:1.25;font-family:sans-serif;letter-spacing:0;word-spacing:0;fill:#000;fill-opacity:1;stroke:none;stroke-width:.34485736" xml:space="preserve"><tspan style="font-size:7.79951954px;stroke-width:.34485736" id="tspan3853" x="111.323" y="29.229">Applications</tspan></text></g><g id="g3931"><rect id="rect3859" width="113.696" height="18.869" x="78.303" y="46.419" style="fill:#ffcdd2;fill-opacity:1;stroke:#fff;stroke-width:.75;stroke-miterlimit:4;stroke-dasharray:none;stroke-opacity:1"/><text id="text3863" x="112.026" y="57.41" style="font-style:normal;font-weight:400;font-size:10.58333302px;line-height:1.25;font-family:sans-serif;letter-spacing:0;word-spacing:0;fill:#000;fill-opacity:1;stroke:none;stroke-width:.26458332" xml:space="preserve"><tspan style="font-size:5.98398924px;stroke-width:.26458332" id="tspan3861" x="112.026" y="57.41">System Libraries</tspan></text></g></g></g><g id="g4413" transform="matrix(1.3546821,0,0,1.3546821,-8.5799279,99.580727)"><g id="g4411"><g id="g4418"><rect style="fill:#b2ebf2;fill-opacity:1;stroke:none;stroke-width:.18174031;stroke-miterlimit:4;stroke-dasharray:none;stroke-opacity:1" id="rect4405" width="219.226" height="14.29" x="24.19" y="77.622"/><text id="text4409" x="116.323" y="87.606" style="font-style:normal;font-weight:400;font-size:7.81241131px;line-height:1.25;font-family:sans-serif;letter-spacing:0;word-spacing:0;fill:#000;fill-opacity:1;stroke:none;stroke-width:.26458332" xml:space="preserve"><tspan style="font-size:7.81241131px;stroke-width:.26458332" id="tspan4407" x="116.323" y="87.606">Firmware</tspan></text></g></g></g><text xml:space="preserve" style="font-style:normal;font-weight:400;font-size:4.93888855px;line-height:1.25;font-family:sans-serif;letter-spacing:0;word-spacing:0;fill:#000;fill-opacity:1;stroke:none;stroke-width:.26458332" id="text1250" x="329.236" y="-1.674"><tspan id="tspan1248" x="329.236" y="-1.674" style="font-size:4.23333311px;stroke-width:.26458332">Inspired by Brendan Gregg original image</tspan></text></g><g id="layer2" transform="translate(62.952195,5.2710703)"><text xml:space="preserve" style="font-style:normal;font-weight:400;font-size:10.5833px;line-height:1.25;font-family:sans-serif;letter-spacing:0;word-spacing:0;fill:#000;fill-opacity:1;stroke:none;stroke-width:.264583" id="text4431" x="213.179" y="236.902"><tspan id="tspan4429" x="213.179" y="236.902" style="stroke-width:.264583">trace bind</tspan></text><text xml:space="preserve" style="font-style:normal;font-weight:400;font-size:10.5833px;line-height:1.25;font-family:sans-serif;letter-spacing:0;word-spacing:0;fill:#000;fill-opacity:1;stroke:none;stroke-width:.264583" id="text4435" x="-62.366" y="13.04"><tspan id="tspan4433" x="-62.366" y="13.04" style="stroke-width:.264583">trace capabilities</tspan></text><text xml:space="preserve" style="font-style:normal;font-weight:400;font-size:10.5833px;line-height:1.25;font-family:sans-serif;letter-spacing:0;word-spacing:0;fill:#000;fill-opacity:1;stroke:none;stroke-width:.264583" id="text4439" x="-62.366" y="25.563"><tspan id="tspan4437" x="-62.366" y="25.563" style="stroke-width:.264583">trace dns</tspan></text><text xml:space="preserve" style="font-style:normal;font-weight:400;font-size:10.5833px;line-height:1.25;font-family:sans-serif;letter-spacing:0;word-spacing:0;fill:#000;fill-opacity:1;stroke:none;stroke-width:.264583" id="text4443" x="-62.366" y="86.467"><tspan id="tspan4441" x="-62.366" y="86.467" style="stroke-width:.264583">trace fsslower</tspan></text><text xml:space="preserve" style="font-style:normal;font-weight:400;font-size:10.5833px;line-height:1.25;font-family:sans-serif;letter-spacing:0;word-spacing:0;fill:#000;fill-opacity:1;stroke:none;stroke-width:.264583" id="text4447" x="-62.366" y="97.051"><tspan id="tspan4445" x="-62.366" y="97.051" style="stroke-width:.264583">trace mount</tspan></text><text xml:space="preserve" style="font-style:normal;font-weight:400;font-size:10.5833px;line-height:1.25;font-family:sans-serif;letter-spacing:0;word-spacing:0;fill:#000;fill-opacity:1;stroke:none;stroke-width:.264583" id="text4451" x="-62.366" y="214.223"><tspan id="tspan4449" x="-62.366" y="214.223" style="stroke-width:.264583">trace network</tspan></text><text xml:space="preserve" style="font-style:normal;font-weight:400;font-size:10.5833px;line-height:1.25;font-family:sans-serif;letter-spacing:0;word-spacing:0;fill:#000;fill-opacity:1;stroke:none;stroke-width:.264583" id="text4455" x="348.877" y="170.378"><tspan id="tspan4453" x="348.877" y="170.378" style="stroke-width:.264583">trace oomkill</tspan></text><text xml:space="preserve" style="font-style:normal;font-weight:400;font-size:10.5833px;line-height:1.25;font-family:sans-serif;letter-spacing:0;word-spacing:0;fill:#000;fill-opacity:1;stroke:none;stroke-width:.264583" id="text4463" x="80.131" y="236.902"><tspan id="tspan4461" x="80.131" y="236.902" style="stroke-width:.264583">trace sni</tspan></text><text xml:space="preserve" style="font-style:normal;font-weight:400;font-size:10.5833px;line-height:1.25;font-family:sans-serif;letter-spacing:0;word-spacing:0;fill:#000;fill-opacity:1;stroke:none;stroke-width:.264583" id="text4423" x="359.957" y="69.1"><tspan id="tspan4421" x="359.957" y="69.1" style="stroke-width:.264583">trace open</tspan></text><text xml:space="preserve" style="font-style:normal;font-weight:400;font-size:10.5833px;line-height:1.25;font-family:sans-serif;letter-spacing:0;word-spacing:0;fill:#000;fill-opacity:1;stroke:none;stroke-width:.264583" id="text4427" x="362.677" y="60.61"><tspan id="tspan4425" x="362.677" y="60.61" style="stroke-width:.264583">trace exec</tspan></text><text xml:space="preserve" style="font-style:normal;font-weight:400;font-size:10.5833px;line-height:1.25;font-family:sans-serif;letter-spacing:0;word-spacing:0;fill:#000;fill-opacity:1;stroke:none;stroke-width:.264583" id="text4459" x="355.904" y="81.094"><tspan id="tspan4457" x="355.904" y="81.094" style="stroke-width:.264583">trace signal</tspan></text><text xml:space="preserve" style="font-style:normal;font-weight:400;font-size:10.5833px;line-height:1.25;font-family:sans-serif;letter-spacing:0;word-spacing:0;fill:#000;fill-opacity:1;stroke:none;stroke-width:.264583" id="text4467" x="369.694" y="92.018"><tspan id="tspan4465" x="369.694" y="92.018" style="stroke-width:.264583">trace tcp</tspan></text><text xml:space="preserve" style="font-style:normal;font-weight:400;font-size:10.5833px;line-height:1.25;font-family:sans-serif;letter-spacing:0;word-spacing:0;fill:#000;fill-opacity:1;stroke:none;stroke-width:.264583" id="text4471" x="329.911" y="102.943"><tspan id="tspan4469" x="329.911" y="102.943" style="stroke-width:.264583">trace tcpconnect</tspan></text><path style="fill:none;stroke:#000;stroke-width:.75;stroke-linecap:butt;stroke-linejoin:miter;stroke-miterlimit:4;stroke-dasharray:none;stroke-opacity:1;marker-end:url(#marker4951)" id="path4473" d="M -0.16181771,89.165498 43.274151,99.965009"/><path style="fill:none;stroke:#000;stroke-width:.75;stroke-linecap:butt;stroke-linejoin:miter;stroke-miterlimit:4;stroke-dasharray:none;stroke-opacity:1;marker-end:url(#marker5137)" id="path5127" d="M 6.3672215,211.1009 137.37654,168.44335"/><path style="fill:none;stroke:#000;stroke-width:.75;stroke-linecap:butt;stroke-linejoin:miter;stroke-miterlimit:4;stroke-dasharray:none;stroke-opacity:1;marker-end:url(#marker5508)" id="path5498" d="m 114.90476,229.34226 43.08929,-97.89583"/><path style="fill:none;stroke:#000;stroke-width:.75;stroke-linecap:butt;stroke-linejoin:miter;stroke-miterlimit:4;stroke-dasharray:none;stroke-opacity:1;marker-end:url(#marker6880)" id="path6870" d="M 218.3592,227.50992 196.71037,107.23863"/><path style="fill:none;stroke:#000;stroke-width:.75;stroke-linecap:butt;stroke-linejoin:miter;stroke-miterlimit:4;stroke-dasharray:none;stroke-opacity:1;marker-end:url(#marker9974)" id="path9964" d="m 354.1208,77.984086 -45.4913,1.859421"/><path style="fill:none;stroke:#000;stroke-width:.75;stroke-linecap:butt;stroke-linejoin:miter;stroke-miterlimit:4;stroke-dasharray:none;stroke-opacity:1;marker-end:url(#marker10248)" id="path10238" d="M 376.36978,164.42485 305.78274,140.89583"/><text xml:space="preserve" style="font-style:normal;font-weight:400;font-size:10.5833px;line-height:1.25;font-family:sans-serif;letter-spacing:0;word-spacing:0;fill:#000;fill-opacity:1;stroke:none;stroke-width:.264583" id="text11044" x="-62.197" y="2.909"><tspan id="tspan11042" x="-62.197" y="2.909" style="stroke-width:.264583">Various:</tspan></text><text xml:space="preserve" style="font-style:normal;font-weight:400;font-size:10.5833px;line-height:1.25;font-family:sans-serif;letter-spacing:0;word-spacing:0;fill:#000;fill-opacity:1;stroke:none;stroke-width:.264583" id="text1307" x="341.511" y="44.735"><tspan id="tspan1305" x="341.511" y="44.735" style="stroke-width:.264583">trace tcpdrop</tspan></text><path style="fill:none;stroke:#000;stroke-width:.75;stroke-linecap:butt;stroke-linejoin:miter;stroke-miterlimit:4;stroke-dasharray:none;stroke-opacity:1;marker-start:url(#marker2722)" id="path1524" d="M 200.44351,105.59547 341.3106,42.459964"/></g><g id="layer3" style="display:inline" transform="translate(62.952195,5.2710703)"><text xml:space="preserve" style="font-style:normal;font-weight:400;font-size:10.58333302px;line-height:1.25;font-family:sans-serif;letter-spacing:0;word-spacing:0;fill:#000;fill-opacity:1;stroke:none;stroke-width:.26458332" id="text5201" x="-63.096" y="190.222"><tspan id="tspan5199" x="-63.096" y="190.222" style="stroke-width:.26458332">profile block-io</tspan></text><text xml:space="preserve" style="font-style:normal;font-weight:400;font-size:10.58333302px;line-height:1.25;font-family:sans-serif;letter-spacing:0;word-spacing:0;fill:#000;fill-opacity:1;stroke:none;stroke-width:.26458332" id="text5208" x="360.116" y="234.468"><tspan id="tspan5206" x="360.116" y="234.468" style="stroke-width:.26458332">profile cpu</tspan></text><path style="fill:none;stroke:#000;stroke-width:3.9756844" id="path2" d="m 341.86776,210.34387 h 5.96353 m -5.96353,-7.95137 h 5.96353 m -5.96353,-7.95136 h 5.96353 m -5.96353,-7.95137 h 5.96353 m 31.80546,23.8541 h 5.96353 m -5.96353,-7.95137 h 5.96353 m -5.96353,-7.95136 h 5.96353 m -5.96353,-7.95137 h 5.96353 m -33.79331,-9.93921 v 5.96353 m 7.95137,-5.96353 v 5.96353 m 7.95136,-5.96353 v 5.96353 m 7.95137,-5.96353 v 5.96353 m -23.8541,31.80546 v 5.96353 m 7.95137,-5.96353 v 5.96353 m 7.95136,-5.96353 v 5.96353 m 7.95137,-5.96353 v 5.96353 m -25.84194,-5.96353 h 27.82978 a 1.9878421,1.9878421 0 0 0 1.98784,-1.98784 v -27.82978 a 1.9878421,1.9878421 0 0 0 -1.98784,-1.98784 h -27.82978 a 1.9878421,1.9878421 0 0 0 -1.98784,1.98784 v 27.82978 a 1.9878421,1.9878421 0 0 0 1.98784,1.98784 z m 15.90273,-25.84194 h 7.95137 v 7.95137 h -7.95137 z"/><path style="fill:none;stroke:#000;stroke-width:.75;stroke-linecap:butt;stroke-linejoin:miter;stroke-miterlimit:4;stroke-dasharray:none;stroke-opacity:1;marker-end:url(#marker9656)" id="path9784" d="M 10.524581,184.04865 31.809698,167.99803"/><path style="fill:none;stroke:#000;stroke-width:.75;stroke-linecap:butt;stroke-linejoin:miter;stroke-miterlimit:4;stroke-dasharray:none;stroke-opacity:1;marker-end:url(#marker11206)" id="path11196" d="m 393.12167,228.86919 -29.38765,-28.7544"/></g><g id="layer4" style="display:inline" transform="translate(62.952195,5.2710703)"><text xml:space="preserve" style="font-style:normal;font-weight:400;font-size:10.5833px;line-height:1.25;font-family:sans-serif;letter-spacing:0;word-spacing:0;fill:#000;fill-opacity:1;stroke:none;stroke-width:.264583" id="text5213" x="325.816" y="141.652"><tspan id="tspan5211" x="325.816" y="141.652" style="stroke-width:.264583">snapshot process</tspan></text><text xml:space="preserve" style="font-style:normal;font-weight:400;font-size:10.5833px;line-height:1.25;font-family:sans-serif;letter-spacing:0;word-spacing:0;fill:#000;fill-opacity:1;stroke:none;stroke-width:.264583" id="text5219" x="331.837" y="24.101"><tspan id="tspan5217" x="331.837" y="24.101" style="stroke-width:.264583">snapshot socket</tspan></text><path style="fill:none;stroke:#000;stroke-width:.75;stroke-linecap:butt;stroke-linejoin:miter;stroke-miterlimit:4;stroke-dasharray:none;stroke-opacity:1;marker-end:url(#marker6240)" id="path6230" d="M 343.901,26.038485 193.99232,100.58556"/><path style="fill:none;stroke:#000;stroke-width:.75;stroke-linecap:butt;stroke-linejoin:miter;stroke-miterlimit:4;stroke-dasharray:none;stroke-opacity:1;marker-end:url(#marker6354)" id="path6344" d="M 373.71645,135.71234 310.03266,106.97137"/></g><g id="layer5" style="display:inline" transform="translate(62.952195,5.2710703)"><text xml:space="preserve" style="font-style:normal;font-weight:400;font-size:10.58333302px;line-height:1.25;font-family:sans-serif;letter-spacing:0;word-spacing:0;fill:#000;fill-opacity:1;stroke:none;stroke-width:.75;stroke-miterlimit:4;stroke-dasharray:none" id="text5226" x="-62.366" y="138.628"><tspan id="tspan5224" x="-62.366" y="138.628" style="stroke-width:.75;stroke-miterlimit:4;stroke-dasharray:none">top block-io</tspan></text><text xml:space="preserve" style="font-style:normal;font-weight:400;font-size:10.58333302px;line-height:1.25;font-family:sans-serif;letter-spacing:0;word-spacing:0;fill:#000;fill-opacity:1;stroke:none;stroke-width:.75;stroke-miterlimit:4;stroke-dasharray:none" id="text5232" x="-62.366" y="118.973"><tspan id="tspan5230" x="-62.366" y="118.973" style="stroke-width:.75;stroke-miterlimit:4;stroke-dasharray:none">top file</tspan></text><text xml:space="preserve" style="font-style:normal;font-weight:400;font-size:10.58333302px;line-height:1.25;font-family:sans-serif;letter-spacing:0;word-spacing:0;fill:#000;fill-opacity:1;stroke:none;stroke-width:.75;stroke-miterlimit:4;stroke-dasharray:none" id="text5238" x="-62.366" y="35.705"><tspan id="tspan5236" x="-62.366" y="35.705" style="stroke-width:.75;stroke-miterlimit:4;stroke-dasharray:none">top ebpf</tspan></text><text xml:space="preserve" style="font-style:normal;font-weight:400;font-size:10.58333302px;line-height:1.25;font-family:sans-serif;letter-spacing:0;word-spacing:0;fill:#000;fill-opacity:1;stroke:none;stroke-width:.75;stroke-miterlimit:4;stroke-dasharray:none" id="text5244" x="277.435" y="234.468"><tspan id="tspan5242" x="277.435" y="234.468" style="stroke-width:.75;stroke-miterlimit:4;stroke-dasharray:none">top tcp</tspan></text><path style="fill:none;stroke:#000;stroke-width:.75;stroke-linecap:butt;stroke-linejoin:miter;stroke-miterlimit:4;stroke-dasharray:none;stroke-opacity:1;marker-end:url(#marker1389)" id="path6590" d="M -27.416227,115.9332 36.66369,108.95684"/><path style="fill:none;stroke:#000;stroke-width:.75;stroke-linecap:butt;stroke-linejoin:miter;stroke-miterlimit:4;stroke-dasharray:none;stroke-opacity:1;marker-end:url(#marker9490)" id="path7002" d="M 286.54534,228.02547 207.13388,127.28385"/><path style="fill:none;stroke:#000;stroke-width:.75;stroke-linecap:butt;stroke-linejoin:miter;stroke-miterlimit:4;stroke-dasharray:none;stroke-opacity:1;marker-end:url(#marker7012)" id="path9480" d="m -3.3831291,135.92089 34.7551531,23.1178"/></g><g id="layer6" transform="translate(0.75546551,0.3800058)"><text xml:space="preserve" style="font-style:normal;font-weight:400;font-size:10.58333302px;line-height:1.25;font-family:sans-serif;letter-spacing:0;word-spacing:0;fill:#000;fill-opacity:1;stroke:none;stroke-width:.26458332" id="text1224" x="-.169" y="68.786"><tspan id="tspan1222" x="-.169" y="68.786" style="stroke-width:.26458332">traceloop</tspan></text><path style="fill:none;stroke:#000;stroke-width:.75;stroke-linecap:butt;stroke-linejoin:miter;stroke-miterlimit:4;stroke-dasharray:none;stroke-opacity:1;marker-end:url(#marker1236)" id="path1226" d="M 47.262083,66.177756 102.41519,83.587732"/></g></svg>